<mxfile host="65bd71144e" scale="4" border="0">
    <diagram id="woBObCVOX6_ovj5UqUiK" name="Page-1">
        <mxGraphModel dx="402" dy="317" grid="1" gridSize="10" guides="1" tooltips="1" connect="1" arrows="1" fold="1" page="0" pageScale="1" pageWidth="850" pageHeight="1100" background="none" math="0" shadow="0">
            <root>
                <mxCell id="0"/>
                <mxCell id="1" parent="0"/>
                <mxCell id="48" value="" style="rounded=0;whiteSpace=wrap;html=1;fillColor=#E6D600;strokeColor=none;opacity=10;" parent="1" vertex="1">
                    <mxGeometry x="150" y="350" width="340" height="60" as="geometry"/>
                </mxCell>
                <mxCell id="6" value="" style="edgeStyle=orthogonalEdgeStyle;shape=connector;rounded=0;html=1;labelBackgroundColor=default;strokeColor=#808080;fontFamily=Helvetica;fontSize=11;fontColor=#808080;endArrow=none;endFill=0;startArrow=diamondThin;startFill=1;" parent="1" source="2" target="5" edge="1">
                    <mxGeometry relative="1" as="geometry"/>
                </mxCell>
                <mxCell id="13" value="1" style="edgeLabel;align=left;verticalAlign=middle;resizable=0;points=[];fontSize=11;fontFamily=Helvetica;fontColor=#808080;labelBackgroundColor=none;html=1;" parent="6" vertex="1" connectable="0">
                    <mxGeometry x="-0.6807" relative="1" as="geometry">
                        <mxPoint y="4" as="offset"/>
                    </mxGeometry>
                </mxCell>
                <mxCell id="14" value="*" style="edgeLabel;align=left;verticalAlign=middle;resizable=0;points=[];fontSize=11;fontFamily=Helvetica;fontColor=#808080;labelBackgroundColor=none;html=1;" parent="6" vertex="1" connectable="0">
                    <mxGeometry x="0.74" relative="1" as="geometry">
                        <mxPoint y="-5" as="offset"/>
                    </mxGeometry>
                </mxCell>
                <mxCell id="2" value="SharedVertex" style="rounded=0;whiteSpace=wrap;html=1;fillColor=none;strokeColor=#808080;fontColor=#808080;fontFamily=Helvetica;fontSize=11;" parent="1" vertex="1">
                    <mxGeometry x="400" y="360" width="80" height="40" as="geometry"/>
                </mxCell>
                <mxCell id="3" value="SharedEdge" style="rounded=0;whiteSpace=wrap;html=1;fillColor=none;strokeColor=#808080;fontColor=#808080;fontFamily=Helvetica;fontSize=11;" parent="1" vertex="1">
                    <mxGeometry x="280" y="360" width="80" height="40" as="geometry"/>
                </mxCell>
                <mxCell id="5" value="Vertex" style="rounded=0;whiteSpace=wrap;html=1;fillColor=none;strokeColor=#808080;fontColor=#808080;fontFamily=Helvetica;fontSize=11;perimeterSpacing=0;glass=0;" parent="1" vertex="1">
                    <mxGeometry x="400" y="440" width="80" height="40" as="geometry"/>
                </mxCell>
                <mxCell id="20" value="Face" style="rounded=0;whiteSpace=wrap;html=1;fillColor=none;strokeColor=#808080;fontColor=#808080;fontFamily=Helvetica;fontSize=11;" parent="1" vertex="1">
                    <mxGeometry x="160" y="360" width="80" height="40" as="geometry"/>
                </mxCell>
                <mxCell id="34" style="edgeStyle=orthogonalEdgeStyle;shape=connector;rounded=0;html=1;labelBackgroundColor=default;strokeColor=#808080;fontFamily=Helvetica;fontSize=11;fontColor=#808080;startArrow=diamondThin;startFill=0;endArrow=none;endFill=0;" parent="1" source="3" target="2" edge="1">
                    <mxGeometry relative="1" as="geometry">
                        <mxPoint x="400" y="460" as="sourcePoint"/>
                        <Array as="points">
                            <mxPoint x="380" y="380"/>
                            <mxPoint x="380" y="380"/>
                        </Array>
                    </mxGeometry>
                </mxCell>
                <mxCell id="35" value="*" style="edgeLabel;html=1;align=center;verticalAlign=bottom;resizable=0;points=[];fontSize=11;fontFamily=Helvetica;fontColor=#808080;labelBackgroundColor=none;spacing=2;" parent="34" vertex="1" connectable="0">
                    <mxGeometry x="-0.6731" relative="1" as="geometry">
                        <mxPoint x="3" as="offset"/>
                    </mxGeometry>
                </mxCell>
                <mxCell id="36" value="2" style="edgeLabel;html=1;align=center;verticalAlign=bottom;resizable=0;points=[];fontSize=11;fontFamily=Helvetica;fontColor=#808080;labelBackgroundColor=none;" parent="34" vertex="1" connectable="0">
                    <mxGeometry x="0.7038" y="-1" relative="1" as="geometry">
                        <mxPoint x="-4" y="-1" as="offset"/>
                    </mxGeometry>
                </mxCell>
                <mxCell id="29" style="edgeStyle=orthogonalEdgeStyle;shape=connector;rounded=0;html=1;labelBackgroundColor=default;strokeColor=#808080;fontFamily=Helvetica;fontSize=11;fontColor=#808080;startArrow=diamondThin;startFill=0;endArrow=none;endFill=0;" parent="1" source="20" target="5" edge="1">
                    <mxGeometry relative="1" as="geometry">
                        <mxPoint x="250" y="390" as="sourcePoint"/>
                        <mxPoint x="290" y="390" as="targetPoint"/>
                        <Array as="points">
                            <mxPoint x="200" y="460"/>
                        </Array>
                    </mxGeometry>
                </mxCell>
                <mxCell id="30" value="3..*" style="edgeLabel;align=right;verticalAlign=bottom;resizable=0;points=[];fontSize=11;fontFamily=Helvetica;fontColor=#808080;labelBackgroundColor=none;spacing=2;spacingTop=0;spacingLeft=0;spacingRight=0;html=1;" parent="29" vertex="1" connectable="0">
                    <mxGeometry x="0.714" relative="1" as="geometry">
                        <mxPoint x="37" as="offset"/>
                    </mxGeometry>
                </mxCell>
                <mxCell id="31" value="1" style="edgeLabel;html=1;align=left;verticalAlign=middle;resizable=0;points=[];fontSize=11;fontFamily=Helvetica;fontColor=#808080;labelBackgroundColor=none;" parent="29" vertex="1" connectable="0">
                    <mxGeometry x="-0.4081" y="-1" relative="1" as="geometry">
                        <mxPoint x="-17" y="-51" as="offset"/>
                    </mxGeometry>
                </mxCell>
                <mxCell id="46" value="{ordered}" style="edgeLabel;html=1;align=left;verticalAlign=bottom;resizable=0;points=[];fontSize=8;labelBackgroundColor=none;fontColor=#808080;" parent="29" vertex="1" connectable="0">
                    <mxGeometry x="-0.1382" y="-1" relative="1" as="geometry">
                        <mxPoint x="-52" y="-1" as="offset"/>
                    </mxGeometry>
                </mxCell>
                <mxCell id="43" value="Interaction" style="text;html=1;strokeColor=none;fillColor=none;align=center;verticalAlign=middle;whiteSpace=wrap;rounded=0;labelBackgroundColor=none;fontFamily=Helvetica;fontSize=11;fontColor=#808080;opacity=10;horizontal=0;rotation=-180;" parent="1" vertex="1">
                    <mxGeometry x="490" y="350" width="30" height="60" as="geometry"/>
                </mxCell>
                <mxCell id="49" value="" style="rounded=0;whiteSpace=wrap;html=1;fillColor=none;strokeColor=#808080;fontColor=#808080;fontFamily=Helvetica;fontSize=11;perimeterSpacing=0;glass=0;" parent="1" vertex="1">
                    <mxGeometry x="403" y="443" width="74" height="34" as="geometry"/>
                </mxCell>
                <mxCell id="50" value="" style="rounded=0;whiteSpace=wrap;html=1;fillColor=none;strokeColor=#808080;fontColor=#808080;fontFamily=Helvetica;fontSize=11;perimeterSpacing=0;glass=0;" parent="1" vertex="1">
                    <mxGeometry x="163" y="363" width="74" height="34" as="geometry"/>
                </mxCell>
                <mxCell id="51" value="" style="rounded=0;whiteSpace=wrap;html=1;fillColor=none;strokeColor=#808080;fontColor=#808080;fontFamily=Helvetica;fontSize=11;perimeterSpacing=0;glass=0;" parent="1" vertex="1">
                    <mxGeometry x="283" y="363" width="74" height="34" as="geometry"/>
                </mxCell>
            </root>
        </mxGraphModel>
    </diagram>
</mxfile>